<svg height="642pt" viewBox="-121 -20 642 642.67143" width="642pt" xmlns="http://www.w3.org/2000/svg"><path d="m392.339844 148.800781c-1.578125-2.941406-4.378906-5.03125-7.652344-5.703125-.820312-.164062-1.660156-.242187-2.5-.222656h-247.925781c-6.207031 0-11.242188 5.027344-11.242188 11.238281v102.203125c0 6.207032 5.035157 11.242188 11.242188 11.242188 6.210937 0 11.242187-5.035156 11.242187-11.242188v-90.960937h160.191406l-107.863281 32.292969c-4.753906 1.425781-8.015625 5.800781-8.015625 10.769531v317.296875h-44.3125v-86.976563c0-6.210937-5.03125-11.238281-11.242187-11.238281-6.207031 0-11.242188 5.027344-11.242188 11.238281v98.21875c0 6.210938 5.035157 11.242188 11.242188 11.242188h55.554687v43.066406c0 3.550781 1.679688 6.890625 4.527344 9.015625 2.851562 2.121094 6.535156 2.769531 9.941406 1.75l181.371094-54.300781c4.757812-1.425781 8.023438-5.808594 8.023438-10.773438v-382.585937c.039062-1.941406-.421876-3.863282-1.339844-5.570313zm-21.144532 379.789063-158.894531 47.574218v-359.378906l158.894531-47.570312zm0 0"/><path d="m254.601562 396.421875c16.558594 0 29.972657-13.421875 29.972657-29.976563 0-16.554687-13.414063-29.976562-29.972657-29.976562-16.554687 0-29.976562 13.421875-29.976562 29.976562.019531 16.542969 13.429688 29.957032 29.976562 29.976563zm0-37.472656c4.140626 0 7.492188 3.359375 7.492188 7.496093 0 4.136719-3.351562 7.492188-7.492188 7.492188-4.140624 0-7.496093-3.355469-7.496093-7.492188.003906-4.136718 3.363281-7.492187 7.496093-7.496093zm0 0"/><path d="m264.59375 119.910156c28.039062-.007812 52.328125-19.4375 58.480469-46.789062 6.160156-27.359375-7.46875-55.324219-32.800781-67.335938-25.332032-12.011718-55.609376-4.863281-72.890626 17.214844-18.285156 23.355469-16.742187 56.570312 3.625 78.128906 11.34375 11.964844 27.097657 18.75 43.585938 18.78125zm-31.476562-84.578125c12.039062-15.371093 33.417968-19.808593 50.570312-10.480469 17.15625 9.335938 25.058594 29.6875 18.691406 48.144532-6.367187 18.464844-25.140625 29.617187-44.398437 26.386718-19.257813-3.230468-33.363281-19.902343-33.355469-39.425781-.011719-8.929687 2.980469-17.605469 8.492188-24.625zm0 0"/><path d="m254.75 72.769531 13.90625 8.902344c4.640625 2.894531 10.746094 1.519531 13.699219-3.085937 2.953125-4.609376 1.648437-10.730469-2.921875-13.742188l-9.300782-5.960938v-22.222656c0-5.523437-4.472656-9.992187-9.992187-9.992187s-9.992187 4.46875-9.992187 9.992187v27.691406c0 3.40625 1.734374 6.578126 4.601562 8.417969zm0 0"/><path d="m173.886719 337.261719-51.222657-51.222657c-4.390624-4.390624-11.507812-4.390624-15.898437 0-4.390625 4.386719-4.390625 11.503907 0 15.894532l32.035156 32.035156h-134c-6.207031 0-11.242187 5.03125-11.242187 11.242188 0 6.207031 5.035156 11.242187 11.242187 11.242187h134l-32.035156 32.035156c-4.390625 4.386719-4.390625 11.503907 0 15.894531 4.390625 4.390626 11.507813 4.390626 15.898437 0l51.222657-51.222656c4.386719-4.390625 4.386719-11.511718 0-15.898437zm0 0"/></svg>