<?xml version="1.0" encoding="iso-8859-1"?>
<!-- Generator: Adobe Illustrator 18.0.0, SVG Export Plug-In . SVG Version: 6.00 Build 0)  -->
<!DOCTYPE svg PUBLIC "-//W3C//DTD SVG 1.1//EN" "http://www.w3.org/Graphics/SVG/1.1/DTD/svg11.dtd">
<svg version="1.1" id="Capa_1" xmlns="http://www.w3.org/2000/svg" xmlns:xlink="http://www.w3.org/1999/xlink" x="0px" y="0px"
	 viewBox="0 0 492.426 492.426" style="enable-background:new 0 0 492.426 492.426;" xml:space="preserve">
<g id="XMLID_88_">
	<g id="XMLID_91_">
		<path id="XMLID_94_" d="M158.971,195.622l-28.556,22.6H93.26c-20.049,0-36.272,16.23-36.272,36.276
			c0,20.043,16.224,36.278,36.272,36.278h49.803c8.164,0,16.112-2.751,22.51-7.831l20.17-15.972v52.678l-47.953,12.67
			c-10.651,2.814-19.699,9.842-25.06,19.466c-5.362,9.624-6.575,21.016-3.362,31.554l25.403,83.31
			c4.744,15.662,19.139,25.775,34.712,25.775c3.483,0,7.011-0.508,10.522-1.58c19.195-5.795,30.022-26.061,24.21-45.241
			l-15.639-51.66l57.623-15.16l57.649,15.16l-15.647,51.66c-5.804,19.181,5.025,39.446,24.2,45.241
			c3.511,1.072,7.058,1.58,10.541,1.58c15.555,0,29.949-10.113,34.694-25.775l25.351-83.412c3.204-10.541,1.98-21.932-3.392-31.552
			c-5.371-9.619-14.425-16.639-25.08-19.442l-71.616-18.846L158.971,195.622z"/>
	</g>
	<path id="XMLID_90_" d="M399.165,218.222h-37.174l-64.271-50.907c-1.504-1.184-3.092-2.159-4.708-3.064
		c-14.042,7.488-29.81,12.134-46.813,12.134c-16.938,0-32.688-4.627-46.702-12.081c-0.158,0.086-0.335,0.104-0.493,0.202
		l108.643,103.239l19.186,15.199c6.425,5.081,14.366,7.832,22.528,7.832h49.803c20.031,0,36.273-16.235,36.273-36.278
		C435.438,234.452,419.196,218.222,399.165,218.222z"/>
	<path id="XMLID_89_" d="M246.199,152.19c42.039,0,76.12-34.06,76.12-76.086C322.32,34.075,288.238,0,246.199,0
		c-42.012,0-76.094,34.075-76.094,76.104C170.106,118.131,204.188,152.19,246.199,152.19z"/>
</g>
<g>
</g>
<g>
</g>
<g>
</g>
<g>
</g>
<g>
</g>
<g>
</g>
<g>
</g>
<g>
</g>
<g>
</g>
<g>
</g>
<g>
</g>
<g>
</g>
<g>
</g>
<g>
</g>
<g>
</g>
</svg>
