<svg height="496pt" viewBox="0 0 496 496" width="496pt" xmlns="http://www.w3.org/2000/svg"><path d="m216 432h-8.808594c-3.71875-18.230469-19.871094-32-39.191406-32h-24v-26.441406c0-18.519532 3.695312-36.542969 10.984375-53.550782l.726563-1.679687c8.152343-19.039063 12.289062-39.183594 12.289062-59.886719v-10.441406c0-15.28125-6.039062-29.550781-17-40.191406-10.960938-10.632813-25.238281-16.296875-40.71875-15.785156-29.929688.90625-54.28125 26.914062-54.28125 57.984374v8.433594c0 20.695313 4.136719 40.847656 12.296875 59.894532l.710937 1.648437c7.296876 17.023437 10.992188 35.046875 10.992188 53.574219v26.441406h-24c-19.3125 0-35.472656 13.769531-39.191406 32h-8.808594c-4.425781 0-8 3.585938-8 8v48c0 4.414062 3.574219 8 8 8h208c4.425781 0 8-3.585938 8-8v-48c0-4.414062-3.574219-8-8-8zm-144-173.558594v-8.433594c0-22.511718 17.390625-41.351562 38.769531-41.992187 10.933594-.28125 21.253907 3.679687 29.085938 11.273437 7.832031 7.597657 12.144531 17.800782 12.144531 28.710938v10.441406c0 18.519532-3.695312 36.542969-10.984375 53.550782l-.726563 1.6875c-7.425781 17.3125-11.335937 35.578124-12.007812 54.320312h-32.5625c-.679688-18.734375-4.589844-37.007812-12.015625-54.335938l-.710937-1.648437c-7.296876-17.023437-10.992188-35.046875-10.992188-53.574219zm24 125.558594h32v16h-32zm-40 32h112c10.414062 0 19.214844 6.710938 22.527344 16h-157.054688c3.3125-9.289062 12.113282-16 22.527344-16zm152 64h-192v-32h192zm0 0"/><path d="m493.648438 82.335938-29.648438-29.648438v-44.6875c0-4.414062-3.574219-8-8-8h-256c-4.425781 0-8 3.585938-8 8v368c0 4.414062 3.574219 8 8 8h24v24c0 4.414062 3.574219 8 8 8h256c4.425781 0 8-3.585938 8-8v-320c0-2.214844-.894531-4.214844-2.351562-5.664062zm-45.648438-23.023438 20.6875 20.6875h-20.6875zm-224-19.3125v328h-16v-352h240v20.6875l-2.335938-2.335938c-1.449218-1.457031-3.449218-2.351562-5.664062-2.351562h-208c-4.425781 0-8 3.585938-8 8zm256 360h-240v-352h192v40c0 4.414062 3.574219 8 8 8h40zm0 0"/><path d="m264 128h144c4.425781 0 8-3.585938 8-8v-48c0-4.414062-3.574219-8-8-8h-144c-4.425781 0-8 3.585938-8 8v48c0 4.414062 3.574219 8 8 8zm8-48h128v32h-128zm0 0"/><path d="m256 144h208v16h-208zm0 0"/><path d="m256 176h208v16h-208zm0 0"/><path d="m416.710938 250.648438-10.054688-15.089844-13.3125 8.875 16 24c1.398438 2.101562 3.710938 3.414062 6.222656 3.550781.152344.015625.289063.015625.433594.015625 2.367188 0 4.625-1.046875 6.152344-2.878906l40-48-12.296875-10.242188zm0 0"/><path d="m416.710938 306.648438-10.054688-15.089844-13.3125 8.875 16 24c1.398438 2.101562 3.710938 3.414062 6.222656 3.550781.152344.015625.289063.015625.433594.015625 2.367188 0 4.625-1.046875 6.152344-2.878906l40-48-12.296875-10.242188zm0 0"/><path d="m416.710938 362.648438-10.054688-15.089844-13.3125 8.875 16 24c1.398438 2.101562 3.710938 3.414062 6.222656 3.550781.152344.015625.289063.015625.433594.015625 2.367188 0 4.625-1.046875 6.152344-2.878906l40-48-12.296875-10.242188zm0 0"/><path d="m256 368h128v16h-128zm0 0"/><path d="m256 312h128v16h-128zm0 0"/><path d="m256 256h128v16h-128zm0 0"/></svg>
