<?xml version="1.0" encoding="iso-8859-1"?>
<!-- Generator: Adobe Illustrator 19.0.0, SVG Export Plug-In . SVG Version: 6.00 Build 0)  -->
<svg version="1.1" id="Capa_1" xmlns="http://www.w3.org/2000/svg" xmlns:xlink="http://www.w3.org/1999/xlink" x="0px" y="0px"
	 viewBox="0 0 512 512" style="enable-background:new 0 0 512 512;" xml:space="preserve">
<g>
	<circle style="fill:#F3E8D6;" cx="399.1" cy="391.988" r="112.9"/>
	<circle style="fill:#F3E8D6;" cx="399.1" cy="391.988" r="112.9"/>
</g>
<path style="fill:#E5D8C6;" d="M458.001,295.652c10.508,17.149,16.569,37.317,16.569,58.903
	c0,62.354-50.548,112.902-112.902,112.902c-21.586,0-41.754-6.061-58.903-16.569c19.846,32.388,55.564,53.999,96.332,53.999
	c62.355,0,112.903-50.548,112.903-112.902C512,351.216,490.389,315.497,458.001,295.652z"/>
<path style="fill:#FFF9F0;" d="M391.372,279.35v225.267c2.554,0.173,5.129,0.268,7.726,0.268c2.598,0,5.173-0.096,7.726-0.268
	V279.35c-2.554-0.173-5.129-0.268-7.726-0.268C396.5,279.083,393.926,279.177,391.372,279.35z"/>
<path style="fill:#E1EFFB;" d="M28.905,413.039L28.905,413.039c-38.54-38.54-38.54-101.026,0-139.566L266.361,36.017
	c38.54-38.54,101.026-38.54,139.566,0l0,0c38.54,38.54,38.54,101.026,0,139.566L168.471,413.039
	C129.931,451.578,67.445,451.578,28.905,413.039z"/>
<path style="fill:#CADDEA;" d="M405.927,36.017L405.927,36.017c-6.169-6.169-12.954-11.346-20.154-15.54
	c22.007,37.779,16.831,87.041-15.54,119.412L132.777,377.345c-32.371,32.371-81.633,37.547-119.412,15.54
	c4.194,7.2,9.371,13.985,15.54,20.154l0,0c38.54,38.54,101.026,38.54,139.566,0l237.456-237.456
	C444.467,137.042,444.467,74.557,405.927,36.017z"/>
<path style="fill:#65DB57;" d="M405.927,36.017L405.927,36.017c-38.54-38.54-101.026-38.54-139.566,0L147.656,154.722
	l139.566,139.566l118.705-118.705C444.467,137.042,444.467,74.557,405.927,36.017z"/>
<path style="fill:#01C61B;" d="M427.606,142.936c0.602-1.485,1.167-2.982,1.694-4.489c1.581-4.521,2.823-9.134,3.726-13.799
	c0.301-1.555,0.565-3.116,0.79-4.682c0.452-3.131,0.753-6.279,0.903-9.433c1.28-26.81-8.318-54.043-28.792-74.517l0,0
	c-0.703-0.703-1.415-1.389-2.134-2.065c-0.211-0.199-0.425-0.394-0.637-0.591c-0.532-0.493-1.067-0.979-1.607-1.458
	c-0.219-0.194-0.439-0.389-0.659-0.581c-0.625-0.544-1.255-1.079-1.89-1.605c-0.114-0.094-0.226-0.191-0.34-0.284
	c-0.793-0.651-1.594-1.288-2.402-1.91c-0.033-0.025-0.066-0.049-0.099-0.074c-0.762-0.584-1.531-1.155-2.305-1.714
	c-0.129-0.093-0.259-0.185-0.388-0.278c-0.736-0.526-1.478-1.042-2.225-1.546c-0.077-0.052-0.153-0.104-0.23-0.156
	c-1.718-1.151-3.464-2.244-5.236-3.276l-0.001-0.001c22.007,37.779,16.831,87.041-15.54,119.412L251.528,258.594l35.694,35.694
	l118.705-118.705C415.562,165.947,422.788,154.816,427.606,142.936z"/>
<g>
</g>
<g>
</g>
<g>
</g>
<g>
</g>
<g>
</g>
<g>
</g>
<g>
</g>
<g>
</g>
<g>
</g>
<g>
</g>
<g>
</g>
<g>
</g>
<g>
</g>
<g>
</g>
<g>
</g>
</svg>
