<?xml version="1.0" encoding="iso-8859-1"?>
<!-- Generator: Adobe Illustrator 19.0.0, SVG Export Plug-In . SVG Version: 6.00 Build 0)  -->
<svg version="1.1" id="Layer_1" xmlns="http://www.w3.org/2000/svg" xmlns:xlink="http://www.w3.org/1999/xlink" x="0px" y="0px"
	 viewBox="0 0 460.425 460.425" style="enable-background:new 0 0 460.425 460.425;" xml:space="preserve">
<g>
	<g>
		<g>
			<path d="M240.754,266.877c7.564,2.732,60.222,21.753,66.185,23.907c4.943,1.784,10.207,0.756,14.07-2.246
				c2.885-1.274,3.495-1.918,12.95-8.945c-8.418,1.88-6.434,1.436-14.696,3.281c-12.276,2.744-24.511-4.986-27.263-17.309
				c-2.736-12.254,4.999-24.513,17.309-27.262l35.165-7.852l22.495-31.376l-15.892,41.361c-18.427,4.115-17.456,3.898-39.331,8.782
				c-6.365,1.422-10.211,7.73-8.831,13.909c0.025,0.113,0.06,0.22,0.088,0.331c1.551,6.107,7.676,9.875,13.821,8.5l45.427-10.143
				c3.808-0.85,6.937-3.549,8.337-7.192l17.548-45.674l-4.635,33.822l17.377-12.915c6.411-4.765,7.745-13.837,2.97-20.246
				l-17.589-23.609c-4.868-6.534-14.184-7.758-20.575-2.696l-84.379,66.84c-19.872-7.178-12.981-4.689-35.896-12.966
				c-3.455-1.248-7.253-1.163-10.647,0.241l-77.852,32.17c-7.532,3.112-11.114,11.74-8.002,19.271
				c3.111,7.53,11.737,11.115,19.272,8.003L240.754,266.877z"/>
			<path d="M389.582,171.12c9.439,8.399,23.852,9.389,34.469,1.499c12.12-9.008,14.643-26.135,5.635-38.255
				s-26.135-14.643-38.255-5.635C377.542,139.051,376.597,159.564,389.582,171.12z"/>
			<path d="M456.725,224.775c-5.802-7.217-16.353-8.364-23.574-2.563l-102.81,82.646H184.669c-9.261,0-16.768,7.507-16.768,16.768
				c0,9.261,7.507,16.768,16.768,16.768h6.536v11.624c0,6.194,5.021,11.214,11.214,11.214c6.194,0,11.214-5.02,11.214-11.214
				v-11.624h95.697v11.624c0,6.194,5.021,11.214,11.215,11.214c6.193,0,11.215-5.02,11.215-11.214v-11.624h4.485
				c3.821,0,7.527-1.305,10.506-3.699l107.411-86.345C461.38,242.547,462.528,231.992,456.725,224.775z"/>
			<circle cx="81.216" cy="125.269" r="26.075"/>
			<path d="M121.219,255.01c1.425-1.224,2.583-2.8,3.31-4.674c2.361-6.082-0.655-12.927-6.737-15.289l-38.094-14.79l-8.216-37.415
				l13.844,26.927l11.938,4.635l4.619-28.395c1.562-9.602-4.956-18.652-14.558-20.214l-26.939-4.382
				c-12.632-3.577-22.634,3.783-24.279,13.897c-1.478,9.467-12.398,80.248-12.861,86.346c-0.333,4.345,1.335,8.379,4.221,11.208
				H11.214C5.021,272.865,0,277.885,0,284.079v65.938c0,6.194,5.021,11.214,11.214,11.214c6.194,0,11.214-5.02,11.214-11.214v-18.44
				h44.414v18.44c0,6.194,5.021,11.214,11.214,11.214c6.194,0,11.214-5.02,11.214-11.214c0-71.735,0.2-66.876-0.466-69.126
				l13.493,1.033l-10.084,62.884c-1.24,7.731,4.022,15.002,11.752,16.243c7.752,1.239,15.005-4.04,16.243-11.752l12.524-78.089
				C133.914,263.84,129.061,256.406,121.219,255.01z M66.843,316.624H22.429v-21.33h44.414V316.624z M58.795,250.16l-2.44-0.947
				c-6.368-2.473-10.179-8.702-9.914-15.167l1.964-46.135l9.575,43.601c0.849,3.864,3.575,7.047,7.263,8.479l34.203,13.28
				L58.795,250.16z"/>
		</g>
	</g>
</g>
<g>
</g>
<g>
</g>
<g>
</g>
<g>
</g>
<g>
</g>
<g>
</g>
<g>
</g>
<g>
</g>
<g>
</g>
<g>
</g>
<g>
</g>
<g>
</g>
<g>
</g>
<g>
</g>
<g>
</g>
</svg>
