<?xml version="1.0" encoding="UTF-8" standalone="no"?>
<svg
   xmlns:dc="http://purl.org/dc/elements/1.1/"
   xmlns:cc="http://creativecommons.org/ns#"
   xmlns:rdf="http://www.w3.org/1999/02/22-rdf-syntax-ns#"
   xmlns:svg="http://www.w3.org/2000/svg"
   xmlns="http://www.w3.org/2000/svg"
   version="1.1"
   id="Capa_1"
   x="0px"
   y="0px"
   viewBox="0 0 60 60"
   style="enable-background:new 0 0 60 60;"
   xml:space="preserve"><metadata
   id="metadata3902"><rdf:RDF><cc:Work
       rdf:about=""><dc:format>image/svg+xml</dc:format><dc:type
         rdf:resource="http://purl.org/dc/dcmitype/StillImage" /><dc:title></dc:title></cc:Work></rdf:RDF></metadata><defs
   id="defs3900" />
<g
   transform="matrix(0.7695,0,0,0.7695,13.915,12.915)"
   id="g3865">
	<path
   d="m 34.74,36.53 9.363,-12.944 c 0.287,-0.397 0.244,-0.945 -0.104,-1.293 -0.348,-0.346 -0.896,-0.39 -1.293,-0.104 L 29.76,31.555 c -0.844,0.614 -1.375,1.563 -1.456,2.604 -0.081,1.041 0.296,2.06 1.033,2.797 0.673,0.673 1.567,1.044 2.517,1.044 1.138,0 2.216,-0.549 2.886,-1.47 z"
   id="path3849" />
	<path
   d="m 54.534,19.564 c -0.01,-0.021 -0.01,-0.043 -0.021,-0.064 -0.012,-0.02 -0.031,-0.031 -0.044,-0.05 -1.011,-1.734 -2.207,-3.347 -3.565,-4.809 l 2.147,-2.147 1.414,1.414 4.242,-4.242 -4.242,-4.243 -4.243,4.243 1.415,1.414 -2.147,2.147 C 48.028,11.869 46.416,10.672 44.681,9.661 44.662,9.648 44.651,9.629 44.631,9.617 44.61,9.605 44.588,9.606 44.567,9.595 41.474,7.813 37.999,6.626 34.295,6.191 V 5 h 1.5 c 1.379,0 2.5,-1.121 2.5,-2.5 0,-1.379 -1.123,-2.5 -2.502,-2.5 h -9 c -1.379,0 -2.5,1.121 -2.5,2.5 0,1.379 1.121,2.5 2.5,2.5 h 1.5 v 1.156 c -1.08,0.115 -2.158,0.291 -3.224,0.535 -0.538,0.123 -0.875,0.66 -0.751,1.198 0.123,0.538 0.66,0.874 1.198,0.751 0.946,-0.217 1.902,-0.378 2.86,-0.485 L 29.367,8.08 c 0.335,-0.025 0.635,-0.043 0.925,-0.057 v 0 V 10 c 0,0.553 0.447,1 1,1 0.553,0 1,-0.447 1,-1 V 8.03 c 3.761,0.173 7.305,1.183 10.456,2.845 l -0.986,1.708 c -0.276,0.479 -0.112,1.09 0.366,1.366 0.157,0.091 0.329,0.134 0.499,0.134 0.346,0 0.682,-0.18 0.867,-0.5 l 0.983,-1.704 c 3.129,1.985 5.787,4.643 7.772,7.772 l -1.703,0.983 c -0.476,0.276 -0.64,0.887 -0.363,1.366 0.186,0.321 0.521,0.5 0.867,0.5 0.17,0 0.342,-0.043 0.499,-0.134 l 1.707,-0.986 c 1.685,3.196 2.698,6.798 2.849,10.619 H 54.13 c -0.553,0 -1,0.447 -1,1 0,0.553 0.447,1 1,1 h 1.975 c -0.151,3.821 -1.164,7.423 -2.849,10.619 l -1.707,-0.986 c -0.478,-0.277 -1.09,-0.114 -1.366,0.366 -0.276,0.479 -0.112,1.09 0.366,1.366 l 1.703,0.983 c -1.985,3.129 -4.643,5.787 -7.772,7.772 l -0.983,-1.703 c -0.277,-0.48 -0.89,-0.644 -1.366,-0.366 -0.479,0.276 -0.643,0.888 -0.366,1.366 l 0.986,1.707 C 39.6,56.785 36.056,57.795 32.295,57.968 V 56 c 0,-0.553 -0.447,-1 -1,-1 -0.553,0 -1,0.447 -1,1 v 1.976 c -1.597,-0.055 -3.199,-0.255 -4.776,-0.617 -0.538,-0.125 -1.075,0.213 -1.198,0.751 -0.124,0.538 0.213,1.075 0.751,1.198 1.996,0.46 4.035,0.692 6.058,0.692 0.049,0 0.096,-0.003 0.145,-0.004 0.007,0 0.012,0.004 0.018,0.004 0.008,0 0.015,-0.005 0.023,-0.005 4.807,-0.033 9.317,-1.331 13.219,-3.573 0.031,-0.014 0.064,-0.021 0.094,-0.039 0.02,-0.012 0.031,-0.031 0.05,-0.044 4.039,-2.354 7.414,-5.725 9.773,-9.761 0.019,-0.027 0.043,-0.048 0.06,-0.078 0.012,-0.021 0.011,-0.043 0.021,-0.064 2.284,-3.96 3.597,-8.546 3.597,-13.436 0,-4.89 -1.313,-9.476 -3.596,-13.436 z"
   id="path3851" />
	<path
   d="m 22.293,13 h -5 c -1.104,0 -2,0.896 -2,2 0,1.104 0.896,2 2,2 h 5 c 1.104,0 2,-0.896 2,-2 0,-1.104 -0.896,-2 -2,-2 z"
   id="path3853" />
	<path
   d="m 22.293,20 h -10 c -1.104,0 -2,0.896 -2,2 0,1.104 0.896,2 2,2 h 10 c 1.104,0 2,-0.896 2,-2 0,-1.104 -0.896,-2 -2,-2 z"
   id="path3855" />
	<path
   d="m 22.293,27 h -15 c -1.104,0 -2,0.896 -2,2 0,1.104 0.896,2 2,2 h 15 c 1.104,0 2,-0.896 2,-2 0,-1.104 -0.896,-2 -2,-2 z"
   id="path3857" />
	<path
   d="m 22.293,34 h -19 c -1.104,0 -2,0.896 -2,2 0,1.104 0.896,2 2,2 h 19 c 1.104,0 2,-0.896 2,-2 0,-1.104 -0.896,-2 -2,-2 z"
   id="path3859" />
	<path
   d="m 22.293,41 h -13 c -1.104,0 -2,0.896 -2,2 0,1.104 0.896,2 2,2 h 13 c 1.104,0 2,-0.896 2,-2 0,-1.104 -0.896,-2 -2,-2 z"
   id="path3861" />
	<path
   d="m 22.293,48 h -7 c -1.104,0 -2,0.896 -2,2 0,1.104 0.896,2 2,2 h 7 c 1.104,0 2,-0.896 2,-2 0,-1.104 -0.896,-2 -2,-2 z"
   id="path3863" />
</g>
<g
   id="g3867">
</g>
<g
   id="g3869">
</g>
<g
   id="g3871">
</g>
<g
   id="g3873">
</g>
<g
   id="g3875">
</g>
<g
   id="g3877">
</g>
<g
   id="g3879">
</g>
<g
   id="g3881">
</g>
<g
   id="g3883">
</g>
<g
   id="g3885">
</g>
<g
   id="g3887">
</g>
<g
   id="g3889">
</g>
<g
   id="g3891">
</g>
<g
   id="g3893">
</g>
<g
   id="g3895">
</g>
<text
   xml:space="preserve"
   style="font-style:normal;font-weight:normal;font-size:59.98739243px;line-height:1.25;font-family:sans-serif;letter-spacing:0px;word-spacing:0px;fill:#000000;fill-opacity:1;stroke:none;stroke-width:1.49968469"
   x="0.60641205"
   y="12.969285"
   id="text3906"
   transform="scale(0.96889554,1.032103)"><tspan
     id="tspan3904"
     x="0.60641205"
     y="12.969285"
     style="font-style:normal;font-variant:normal;font-weight:bold;font-stretch:normal;font-size:13.99700069px;font-family:sans-serif;-inkscape-font-specification:'sans-serif, Bold';font-variant-ligatures:normal;font-variant-caps:normal;font-variant-numeric:normal;font-feature-settings:normal;text-align:start;writing-mode:lr-tb;text-anchor:start;stroke-width:1.49968469">&gt;4h</tspan></text>

</svg>