<?xml version="1.0" encoding="iso-8859-1"?>
<!-- Generator: Adobe Illustrator 16.0.0, SVG Export Plug-In . SVG Version: 6.00 Build 0)  -->
<!DOCTYPE svg PUBLIC "-//W3C//DTD SVG 1.1//EN" "http://www.w3.org/Graphics/SVG/1.1/DTD/svg11.dtd">
<svg version="1.1" id="Capa_1" xmlns="http://www.w3.org/2000/svg" xmlns:xlink="http://www.w3.org/1999/xlink" x="0px" y="0px"
	 width="79.536px" height="79.536px" viewBox="0 0 79.536 79.536" style="enable-background:new 0 0 79.536 79.536;"
	 xml:space="preserve">
<g>
	<path style="fill:#010002;" d="M53.447,47.483v30.645c0,0.771-0.626,1.408-1.408,1.408c-0.776,0-1.403-0.637-1.403-1.408V47.483
		c0-1.212-0.994-2.211-2.216-2.211c-1.215,0-2.206,0.999-2.206,2.211c0,0.776-0.637,1.403-1.411,1.403s-1.411-0.627-1.411-1.403
		c0-2.071,1.248-3.821,3.019-4.593c-3.57-5.303-5.553-11.151-6.617-16.024l-6.426,18.214c-0.005,0.01-0.029,0.021-0.034,0.025
		c0.233,0.782,4.194,14.768-0.507,30.613c-0.474,1.595-1.926,2.615-3.505,2.615c-0.339,0-0.694-0.052-1.038-0.15
		c-1.937-0.564-3.045-2.609-2.473-4.541c3.738-12.614,1.093-24.188,0.572-26.191c-3.972-7.741-4.746-14.89-2.284-21.253
		c3.922-10.16,14.698-14.178,15.154-14.349c1.893-0.694,4.013,0.288,4.696,2.18c0.246,0.668,0.166,2.242,0.166,2.387
		c0,0.127,0.132,14.007,7.521,24.21c0.688,0.958,0.683,2.19,0.098,3.143C52.764,44.688,53.447,45.992,53.447,47.483z M56.845,7.169
		c0,3.961-3.216,7.18-7.172,7.18c-3.964,0-7.182-3.213-7.182-7.18C42.491,3.197,45.714,0,49.678,0
		C53.629,0,56.845,3.197,56.845,7.169z"/>
</g>
<g>
</g>
<g>
</g>
<g>
</g>
<g>
</g>
<g>
</g>
<g>
</g>
<g>
</g>
<g>
</g>
<g>
</g>
<g>
</g>
<g>
</g>
<g>
</g>
<g>
</g>
<g>
</g>
<g>
</g>
</svg>
